<?xml version="1.0" encoding="utf-8"?>
<!-- Generator: Adobe Illustrator 24.0.0, SVG Export Plug-In . SVG Version: 6.00 Build 0)  -->
<svg version="1.1" id="Layer_1" xmlns="http://www.w3.org/2000/svg" xmlns:xlink="http://www.w3.org/1999/xlink" x="0px" y="0px"
	 viewBox="0 0 50 50" style="enable-background:new 0 0 50 50;" xml:space="preserve">
<style type="text/css">
	.st0{fill:none;stroke:#FFF7E8;stroke-width:2;stroke-linecap:round;stroke-linejoin:round;stroke-miterlimit:10;}
	.st1{fill:none;stroke:#FFF7E8;stroke-width:1.5;stroke-linecap:round;stroke-linejoin:round;stroke-miterlimit:10;}
	.st2{fill:#FFF7E8;}
</style>
<g>
	<path class="st0" d="M25.1,1.1c-4.8,0-9.3,2.3-10.4,5.4"/>
	<path class="st0" d="M19.2,11.1c-1.5-2.5-3.7-4-6.2-4c-4.6,0-8.3,5.3-8.3,11.8c0,3.3,0.9,6.2,2.4,8.3"/>
	<path class="st0" d="M12.2,21.1c-3.2,1.5-5.3,5.1-5.3,9.5c0,6,4.2,11.2,9.3,11.5"/>
	<path class="st0" d="M13.2,17.1c-0.6,1.4-0.7,3.1,0,4.7c0.4,1.2,1.2,2.2,2,2.9"/>
	<path class="st0" d="M15,35.2c0.5,0.9,1.5,1.6,2.6,2c0.8,0.3,1.7,0.3,2.5,0.2"/>
	<path class="st0" d="M7.3,32.5c1.4,0.6,3,0.6,4.6-0.2c1.1-0.6,2-1.4,2.6-2.4"/>
	<path class="st0" d="M18.6,46.1c-0.2-1.2,0-2.2,0.8-2.9c0.5-0.5,1.3-0.7,2.1-0.6"/>
	<path class="st0" d="M12.5,18.2c-1.3-0.1-2.5-0.8-3.2-1.9c-0.5-0.8-0.7-1.7-0.7-2.7"/>
	<path class="st0" d="M17.7,15.2c1.2,0.1,2.5-0.2,3.6-0.8c0.8-0.4,1.3-1,1.6-1.6"/>
	<path class="st0" d="M20.1,4.7c0.4,0.9,1.2,1.8,2.2,2.3c0.7,0.4,1.4,0.5,2.1,0.5"/>
	<path class="st0" d="M18.2,32.5c0.6-1.3,1.8-2.4,3.2-3.1c1-0.5,2.1-0.7,3-0.7"/>
	<path class="st0" d="M18.4,21.5c1.6,1.1,2.8,2.7,3.3,4.5c0.3,1.2,0.2,2.4-0.3,3.3"/>
	<path class="st0" d="M17.2,37.3c-0.7,1.1-1,2.4-1,3.7c0,4.3,4.2,7.8,8.9,7.8"/>
	<path class="st0" d="M25.1,1.1c4.8,0,9.3,2.3,10.4,5.4"/>
	<path class="st0" d="M33.1,8.5c1.2-0.9,2.5-1.5,4-1.5c4.6,0,8.3,5.3,8.3,11.8c0,3.3-0.9,6.2-2.4,8.3"/>
	<path class="st0" d="M41,23.6c1.4,1.8,2.3,4.3,2.3,7c0,6-4.2,11.2-9.3,11.5"/>
	<path class="st0" d="M33,37.3c0.7,1.1,1,2.4,1,3.7c0,4.3-4.2,7.8-8.9,7.8"/>
	<line class="st0" x1="25.1" y1="1.3" x2="25.1" y2="48.5"/>
	<g>
		<g>
			<line class="st1" x1="25.5" y1="23.8" x2="35" y2="23.8"/>
			<polyline class="st1" points="30.6,24.1 33,29.7 37.4,29.7 			"/>
			<path class="st2" d="M37.7,23.8c0,0.8-0.6,1.4-1.4,1.4c-0.8,0-1.4-0.6-1.4-1.4c0-0.8,0.6-1.4,1.4-1.4
				C37.1,22.5,37.7,23.1,37.7,23.8z"/>
			<path class="st2" d="M38.5,29.7c0,0.8-0.6,1.4-1.4,1.4c-0.8,0-1.4-0.6-1.4-1.4c0-0.8,0.6-1.4,1.4-1.4
				C37.8,28.4,38.5,29,38.5,29.7z"/>
			<path class="st2" d="M30.8,33.9c0,0.8-0.6,1.4-1.4,1.4c-0.8,0-1.4-0.6-1.4-1.4c0-0.8,0.6-1.4,1.4-1.4
				C30.1,32.5,30.8,33.1,30.8,33.9z"/>
			<g>
				<polyline class="st1" points="25.5,21.1 33.4,21.1 37.1,17.2 				"/>
				<circle class="st2" cx="37.6" cy="16.6" r="1.4"/>
				<g>
					<polyline class="st1" points="33.5,15.5 30.8,18.7 25.6,18.7 					"/>
					<circle class="st2" cx="33.8" cy="14.9" r="1.4"/>
				</g>
			</g>
		</g>
		<polyline class="st1" points="32.2,27.7 29.5,27.7 29.5,33.9 		"/>
	</g>
</g>
</svg>
