<?xml version="1.0" encoding="utf-8"?>
<!-- Generator: Adobe Illustrator 24.0.0, SVG Export Plug-In . SVG Version: 6.00 Build 0)  -->
<svg version="1.1" id="Capa_1" xmlns="http://www.w3.org/2000/svg" xmlns:xlink="http://www.w3.org/1999/xlink" x="0px" y="0px"
	 viewBox="0 0 17.1 17.1" style="enable-background:new 0 0 17.1 17.1;" xml:space="preserve">
<style type="text/css">
	.st0{fill:#FFFFFF;}
	.st1{fill:#E07272;}
</style>
<g>
	<g>
		<path class="st0" d="M11.3,8c1.3-0.6,1.5-5,0.7-6.4c-1-1.7-5.7-1.4-7.2-0.1C4.6,2.1,4.6,3.2,4.6,4.1h4.7v0.4H4.6H2.5
			c-3.6,0-3.5,7.8,1.2,7.8c0,0,0.2-1.7,0.5-2.6C5.2,7.1,9.2,9,11.3,8z M6.4,3.5c-0.5,0-1-0.4-1-1c0-0.5,0.4-1,1-1c0.5,0,1,0.4,1,1
			C7.4,3,6.9,3.5,6.4,3.5z"/>
		<path class="st0" d="M13.1,4.7c0,0-0.1,1.7-0.4,2.6C11.7,10,7.8,8.1,5.6,9c-1.3,0.6-1.5,5.1-0.7,6.4c1,1.7,5.7,1.4,7.2,0.1
			c0.2-0.6,0.2-1.7,0.1-2.6H7.6v-0.4h4.7h2.3C17.9,12.5,18.2,4.7,13.1,4.7z M10.4,13.4c0.5,0,1,0.4,1,1c0,0.5-0.4,1-1,1s-1-0.4-1-1
			C9.4,13.9,9.9,13.4,10.4,13.4z"/>
	</g>
</g>
<circle class="st1" cx="6.4" cy="2.5" r="1"/>
<circle class="st1" cx="10.4" cy="14.4" r="1"/>
</svg>
