<?xml version="1.0" encoding="utf-8"?>
<!-- Generator: Adobe Illustrator 24.0.0, SVG Export Plug-In . SVG Version: 6.00 Build 0)  -->
<svg version="1.1" id="Layer_1" xmlns="http://www.w3.org/2000/svg" xmlns:xlink="http://www.w3.org/1999/xlink" x="0px" y="0px"
	 viewBox="0 0 50 50" style="enable-background:new 0 0 50 50;" xml:space="preserve">
<style type="text/css">
	.st0{fill:none;stroke:#FFF7E8;stroke-width:2;stroke-linecap:round;stroke-linejoin:round;stroke-miterlimit:10;}
	.st1{fill:none;stroke:#FFF7E8;stroke-width:1.5;stroke-linecap:round;stroke-linejoin:round;stroke-miterlimit:10;}
	.st2{fill:#FFF7E8;}
</style>
<g>
	<g>
		<path class="st0" d="M48.3,33.9c0,1.1-0.9,2-2,2H5.1c-1.1,0-2-0.9-2-2V7.1c0-1.1,0.9-2,2-2h41.2c1.1,0,2,0.9,2,2V33.9z"/>
		<line class="st1" x1="3.4" y1="29" x2="48" y2="29"/>
		<path class="st2" d="M27.4,32.4c0,0.7-0.6,1.3-1.3,1.3c-0.7,0-1.3-0.6-1.3-1.3c0-0.7,0.6-1.3,1.3-1.3
			C26.8,31.1,27.4,31.7,27.4,32.4z"/>
	</g>
	<g>
		<g>
			<line class="st0" x1="21.6" y1="36.2" x2="20.1" y2="43.3"/>
			<line class="st0" x1="29.8" y1="36.2" x2="31.3" y2="43.3"/>
		</g>
		<path class="st0" d="M34.4,43.6H17c-0.9,0-1.6,1.2-1.6,2.6h20.5C35.9,44.8,35.2,43.6,34.4,43.6z"/>
	</g>
	<polyline class="st1" points="6.2,29 6.2,7.7 45.2,7.7 45.2,29 	"/>
	<g>
		<g>
			<g>
				<rect x="21.1" y="15" class="st2" width="2.5" height="4.2"/>
				<rect x="27.4" y="15" class="st2" width="2.5" height="4.2"/>
			</g>
			<rect x="20.6" y="23.1" class="st2" width="9.7" height="1.6"/>
			<g>
				<rect x="19.3" y="21.5" class="st2" width="1.3" height="1.6"/>
				<rect x="30.3" y="21.5" class="st2" width="1.3" height="1.6"/>
			</g>
		</g>
		<g>
			
				<rect x="18.7" y="12.2" transform="matrix(0.9966 -8.230667e-02 8.230667e-02 0.9966 -0.968 1.7779)" class="st2" width="4.8" height="0.9"/>
			
				<rect x="29.8" y="10.2" transform="matrix(8.230667e-02 -0.9966 0.9966 8.230667e-02 15.2029 41.7709)" class="st2" width="0.9" height="4.8"/>
		</g>
	</g>
	<g>
		<g>
			<g>
				<line class="st1" x1="10.4" y1="17.3" x2="14.2" y2="17.3"/>
				<line class="st1" x1="10.4" y1="19.4" x2="14.2" y2="19.4"/>
				<line class="st1" x1="10.4" y1="21.5" x2="14.2" y2="21.5"/>
			</g>
		</g>
		<g>
			<g>
				<line class="st1" x1="37.2" y1="17.3" x2="40.9" y2="17.3"/>
				<line class="st1" x1="37.2" y1="19.4" x2="40.9" y2="19.4"/>
				<line class="st1" x1="37.2" y1="21.5" x2="40.9" y2="21.5"/>
			</g>
		</g>
	</g>
</g>
</svg>
